<?xml version="1.0" standalone="no"?>
<!DOCTYPE svg PUBLIC "-//W3C//DTD SVG 20010904//EN"
 "http://www.w3.org/TR/2001/REC-SVG-20010904/DTD/svg10.dtd">
<svg version="1.0" xmlns="http://www.w3.org/2000/svg"
 width="203.000000pt" height="248.000000pt" viewBox="0 0 203.000000 248.000000"
 preserveAspectRatio="xMidYMid meet">

<g transform="translate(0.000000,248.000000) scale(0.100000,-0.100000)"
fill="#000000" stroke="none">
<path d="M1607 2423 c-12 -11 -8 -68 6 -82 10 -11 10 -14 0 -18 -28 -10 -13
-40 25 -52 62 -21 77 -13 77 39 0 39 -5 50 -38 83 -36 36 -56 44 -70 30z"/>
<path d="M1920 2221 c0 -53 2 -61 19 -61 10 0 21 9 24 20 3 11 12 20 21 20 13
0 16 -14 16 -85 0 -74 -2 -85 -17 -85 -30 0 -63 12 -63 22 0 15 -60 68 -78 68
-24 0 -33 -8 -74 -70 -42 -62 -52 -118 -26 -147 9 -10 18 -27 20 -38 2 -12 13
-21 26 -23 12 -2 22 -7 22 -12 0 -4 16 -18 36 -29 42 -25 42 -50 -1 -64 -36
-11 -77 -46 -69 -59 7 -11 -5 -68 -14 -67 -19 3 -22 -2 -8 -16 17 -18 77 -20
122 -3 27 9 35 9 48 -5 14 -14 75 -37 99 -37 4 0 7 146 7 325 0 282 -2 325
-15 325 -8 0 -15 9 -15 20 0 11 -7 20 -15 20 -10 0 -15 7 -13 18 2 12 -5 18
-24 20 -28 3 -28 3 -28 -57z"/>
<path d="M690 2191 c-8 -20 -10 -64 -6 -138 3 -59 4 -117 3 -128 0 -11 -1 -63
-1 -115 0 -87 4 -103 38 -185 33 -77 37 -96 32 -140 -7 -59 17 -319 39 -420 9
-38 18 -88 21 -110 3 -22 12 -60 19 -85 18 -56 45 -232 45 -287 0 -36 -3 -42
-22 -45 -15 -2 -24 -11 -26 -25 -4 -25 -22 -32 -22 -8 0 19 -13 19 -49 1 -20
-11 -30 -26 -38 -60 -6 -29 -7 -46 -1 -46 6 0 12 9 15 20 6 24 19 26 31 5 7
-14 11 -13 34 5 36 28 47 25 46 -12 0 -46 12 -98 23 -98 13 0 11 -37 -1 -45
-8 -5 -7 -11 0 -20 16 -19 4 -35 -26 -35 -13 0 -24 -5 -24 -11 0 -9 22 -10 75
-6 45 3 73 2 70 -4 -4 -5 -18 -9 -33 -10 -15 0 -35 -4 -45 -8 -18 -6 -18 -8
-2 -21 11 -9 19 -10 23 -3 4 5 20 12 35 15 22 4 27 2 23 -9 -3 -8 -6 -17 -6
-19 0 -2 -11 -4 -25 -4 -14 0 -25 -5 -25 -11 0 -5 8 -9 18 -8 30 3 37 -1 22
-11 -11 -8 -8 -9 13 -4 21 5 27 3 27 -11 0 -14 3 -15 13 -6 16 12 155 23 161
12 3 -4 1 -13 -3 -20 -6 -9 -11 -10 -15 -2 -4 6 -18 11 -31 11 -20 0 -26 -7
-35 -41 -6 -23 -9 -43 -7 -45 2 -3 53 -3 113 -1 72 2 101 6 87 11 -27 10 -30
26 -5 25 21 -1 62 -17 45 -18 -7 -1 -13 -5 -13 -9 0 -4 25 -8 55 -8 30 -1 52
3 49 7 -3 5 -1 9 5 9 5 0 13 -5 16 -10 3 -6 26 -10 51 -10 33 0 44 4 44 15 0
12 8 14 40 9 28 -5 40 -3 40 5 0 9 -18 12 -56 10 -42 -2 -58 1 -65 13 -7 12
-3 14 19 11 21 -4 24 -2 12 6 -13 9 -12 11 5 11 11 0 33 8 50 18 29 18 30 18
53 -5 31 -31 53 -29 85 7 25 27 77 44 62 20 -3 -5 -13 -10 -21 -10 -8 0 -14
-5 -14 -11 0 -6 9 -8 20 -4 14 5 20 2 20 -9 0 -9 5 -16 10 -16 6 0 10 5 10 11
0 7 9 5 24 -5 18 -12 26 -12 29 -3 3 6 6 -3 6 -20 1 -18 -3 -33 -9 -33 -22 0
-80 35 -80 48 0 8 -6 12 -14 9 -8 -3 -17 -1 -20 6 -3 8 -11 5 -24 -10 -10 -12
-27 -21 -37 -20 -10 1 -20 -4 -22 -10 -3 -7 3 -13 12 -13 10 0 15 -5 12 -14
-4 -11 21 -14 138 -15 114 -1 144 1 148 12 3 8 17 17 31 19 14 3 23 1 20 -3
-3 -5 2 -9 10 -9 12 0 16 10 16 35 0 34 -1 34 -50 41 -34 4 -50 11 -50 21 0 8
-4 12 -8 9 -4 -2 -14 -1 -22 5 -12 7 -11 9 5 10 11 0 14 3 7 6 -6 2 -9 9 -6
15 5 7 -2 9 -20 4 -14 -3 -26 -3 -26 1 0 11 59 49 70 46 10 -3 23 54 18 77 -2
11 8 16 40 18 43 3 60 22 20 22 -32 0 -52 15 -45 34 4 10 18 16 37 16 l30 0 0
390 0 390 -24 0 c-17 0 -27 -9 -36 -31 -7 -17 -25 -38 -39 -47 -64 -40 -70
-64 -17 -78 16 -4 31 -15 33 -25 3 -11 10 -19 15 -19 12 0 -2 -73 -16 -82 -6
-4 -19 -5 -28 -2 -15 4 -18 -1 -18 -28 -1 -31 -1 -32 -15 -14 -8 11 -15 14
-15 7 0 -26 -20 1 -26 37 -4 20 -17 59 -30 86 -13 28 -24 55 -24 60 0 6 -14
36 -30 66 -56 102 -92 181 -85 188 3 3 10 0 15 -8 8 -13 10 -12 10 3 0 10 6
20 14 23 10 4 13 22 13 62 -1 31 2 71 5 89 9 47 0 68 -35 81 -26 10 -36 9 -64
-8 -19 -11 -40 -20 -48 -20 -8 0 -20 -12 -27 -27 -8 -16 -21 -27 -31 -27 -9 1
-19 -7 -22 -17 -4 -11 -11 -17 -16 -13 -6 3 -5 12 3 22 7 9 8 13 3 10 -27 -16
-67 58 -70 130 -2 36 -12 52 -23 35 -5 -8 -23 11 -50 50 l-42 62 -5 224 c-3
123 -10 231 -15 241 -14 27 -47 34 -73 17 -12 -8 -41 -33 -64 -56 -23 -23 -48
-41 -56 -41 -7 0 -19 -6 -25 -12 -8 -8 -44 -13 -94 -14 l-81 -1 -65 61 c-90
85 -121 96 -142 47z m182 -396 c3 3 11 -2 18 -11 12 -13 11 -17 -1 -25 -19
-12 -22 -11 -44 5 -12 8 -16 19 -12 31 6 13 10 15 21 6 7 -6 15 -9 18 -6z
m278 -10 c0 -19 -43 -40 -64 -32 -23 9 -20 26 7 37 34 14 57 12 57 -5z m740
-1442 c0 -5 -13 -17 -28 -27 l-27 -19 24 26 c26 28 31 32 31 20z m-140 -107
c0 -2 -7 -6 -15 -10 -8 -3 -15 -1 -15 4 0 6 7 10 15 10 8 0 15 -2 15 -4z
m-580 -26 c0 -5 -10 -10 -22 -9 -22 0 -22 1 -3 9 11 5 21 9 23 9 1 1 2 -3 2
-9z m530 -70 c0 -5 -5 -10 -11 -10 -5 0 -7 -4 -4 -10 4 -6 -10 -10 -34 -10
-49 0 -52 6 -8 25 38 17 57 19 57 5z m-252 -22 c2 8 22 12 55 11 29 -1 42 -4
29 -6 -16 -3 -20 -8 -13 -16 7 -9 -1 -11 -32 -9 -34 3 -48 -2 -72 -22 -30 -26
-55 -33 -69 -19 -4 4 8 13 26 20 33 13 33 13 -14 8 -27 -4 -49 -2 -53 5 -4 6
10 11 37 12 l43 1 -40 6 -40 5 45 6 c25 3 56 1 69 -5 18 -7 26 -6 29 3z m-168
-18 c11 -7 4 -10 -27 -10 -24 0 -43 5 -43 10 0 13 50 13 70 0z m380 -10 c0 -5
-5 -10 -11 -10 -5 0 -7 5 -4 10 3 6 8 10 11 10 2 0 4 -4 4 -10z m-424 -49
c-13 -20 -26 -11 -26 16 0 25 1 26 16 11 9 -9 13 -21 10 -27z m647 14 c-3 -9
-8 -14 -10 -11 -3 3 -2 9 2 15 9 16 15 13 8 -4z m72 -6 c0 -7 -9 -15 -20 -18
-16 -3 -17 -1 -7 11 6 8 8 18 4 23 -4 4 0 6 8 3 8 -3 15 -11 15 -19z m-767
-17 c4 -28 -23 -29 -55 -3 -31 26 -29 29 15 28 30 -2 38 -6 40 -25z m247 18
c-3 -5 -11 -10 -16 -10 -6 0 -7 5 -4 10 3 6 11 10 16 10 6 0 7 -4 4 -10z"/>
<path d="M1556 1783 c-3 -3 -6 -14 -6 -24 0 -9 -7 -20 -16 -23 -28 -11 -4 -26
41 -26 48 0 64 19 39 45 -22 22 -50 35 -58 28z"/>
<path d="M1435 1625 c1 -30 4 -57 7 -60 3 -3 18 5 32 18 19 18 26 34 26 61 0
34 -2 36 -33 36 l-32 0 0 -55z"/>
<path d="M2001 1441 c-31 -31 -41 -90 -32 -183 1 -5 15 -8 31 -8 l30 0 0 105
c0 58 -2 105 -5 105 -3 0 -14 -9 -24 -19z"/>
<path d="M472 480 c-6 -11 -12 -24 -12 -30 0 -15 26 -12 40 6 11 12 11 18 -1
29 -13 13 -16 12 -27 -5z"/>
<path d="M476 415 c4 -8 10 -15 15 -15 5 0 9 7 9 15 0 8 -7 15 -15 15 -9 0
-12 -6 -9 -15z"/>
<path d="M128 396 c-8 -7 -39 -16 -71 -20 -57 -7 -57 -8 -57 -42 0 -33 12 -45
25 -24 3 6 1 10 -4 10 -6 0 -11 7 -11 15 0 19 5 19 34 0 16 -11 22 -22 19 -38
-4 -18 2 -26 24 -37 l28 -14 -27 -4 c-20 -2 -28 -9 -28 -23 0 -20 24 -26 35
-9 4 6 10 8 15 5 9 -6 60 66 60 84 0 6 -7 8 -15 5 -21 -8 -45 14 -45 41 0 16
7 24 25 27 17 4 25 1 25 -9 0 -12 3 -11 17 3 16 15 16 17 -2 30 -23 17 -30 17
-47 0z"/>
<path d="M276 395 c4 -8 10 -12 15 -9 14 8 10 24 -6 24 -9 0 -12 -6 -9 -15z"/>
<path d="M230 385 c0 -8 4 -15 10 -15 5 0 7 7 4 15 -4 8 -8 15 -10 15 -2 0 -4
-7 -4 -15z"/>
<path d="M418 384 c-31 -16 -32 -18 -18 -45 15 -27 48 -24 62 6 9 21 9 29 -3
40 -12 12 -18 11 -41 -1z"/>
<path d="M493 365 c4 -9 7 -26 7 -37 0 -14 5 -18 15 -14 19 7 47 -3 39 -15 -3
-5 -10 -7 -15 -4 -5 4 -9 1 -9 -4 0 -6 5 -11 10 -11 6 0 10 -5 10 -11 0 -5 -5
-7 -11 -3 -9 5 -10 -1 -5 -22 10 -40 24 -54 55 -54 55 0 82 78 41 115 -12 10
-18 25 -16 32 7 17 -12 28 -49 28 -16 1 -41 5 -54 9 -20 7 -23 6 -18 -9z m122
-135 c3 -5 -1 -10 -9 -10 -9 0 -16 5 -16 10 0 6 4 10 9 10 6 0 13 -4 16 -10z"/>
<path d="M795 370 c-3 -5 -1 -10 4 -10 6 0 11 5 11 10 0 6 -2 10 -4 10 -3 0
-8 -4 -11 -10z"/>
<path d="M280 320 c0 -5 7 -10 16 -10 8 0 12 5 9 10 -3 6 -10 10 -16 10 -5 0
-9 -4 -9 -10z"/>
<path d="M363 297 c-18 -7 -33 -15 -33 -19 0 -5 0 -12 0 -18 0 -23 40 -8 55
20 9 17 14 30 13 29 -2 0 -18 -6 -35 -12z"/>
<path d="M470 291 c0 -12 -7 -21 -16 -21 -10 0 -15 -8 -14 -22 5 -54 -1 -88
-13 -88 -8 0 -22 -17 -33 -37 -25 -49 -40 -60 -91 -68 -28 -4 -43 -11 -43 -21
0 -16 -2 -16 -24 -8 -12 5 -14 10 -6 19 7 8 4 17 -10 30 -11 10 -21 15 -21 12
-1 -4 -2 -13 -3 -19 -1 -8 -15 -13 -36 -13 -29 0 -36 -4 -38 -24 -2 -15 0 -21
7 -16 6 3 9 10 7 14 -6 9 53 13 67 4 5 -3 -1 -12 -14 -19 -21 -12 -3 -14 138
-12 122 2 163 6 163 16 0 6 10 12 23 12 21 -1 22 -1 3 -15 -18 -14 -17 -15 23
-15 25 0 40 4 36 10 -4 6 6 10 22 9 25 0 26 -1 8 -9 -14 -6 -3 -9 39 -9 41 -1
62 3 70 14 7 9 19 12 34 8 18 -4 20 -8 10 -14 -9 -6 -2 -9 20 -9 22 0 32 5 32
16 0 8 5 12 10 9 6 -4 8 -10 6 -14 -3 -3 24 -8 60 -9 35 -1 64 1 64 3 0 12
-62 130 -76 147 -18 20 -49 24 -59 8 -3 -5 -24 -7 -45 -5 -35 5 -40 3 -40 -15
0 -11 -6 -23 -13 -26 -24 -9 -14 -32 16 -38 37 -7 47 -1 47 30 0 24 16 35 17
12 1 -42 17 -56 65 -57 15 -1 29 -5 32 -9 6 -11 -157 -6 -203 5 -40 10 -54 33
-20 33 34 0 11 16 -33 24 -42 8 -51 -5 -15 -22 21 -10 21 -11 -8 -12 -25 0
-27 -2 -12 -11 9 -5 21 -8 25 -5 4 3 13 -4 20 -15 14 -22 10 -23 -35 -7 -27
10 -38 10 -55 -1 -19 -12 -20 -11 -14 4 4 11 -1 26 -11 37 -17 19 -17 20 2 18
31 -4 45 -1 45 9 0 5 -29 9 -65 9 -47 -1 -65 -5 -65 -15 0 -7 8 -12 18 -10 9
1 17 -2 17 -8 0 -12 -65 -9 -78 4 -6 6 -3 18 6 31 8 12 17 16 19 10 2 -7 15
-5 38 7 27 13 31 18 17 21 -14 3 -16 7 -6 18 6 8 18 14 25 14 20 0 17 37 -4
58 -9 9 -16 25 -14 34 2 9 -2 19 -7 23 -7 3 -11 -3 -11 -14z m290 -201 c0 -5
-2 -10 -4 -10 -3 0 -8 5 -11 10 -3 6 -1 10 4 10 6 0 11 -4 11 -10z m-354 -36
c1 -14 -6 -20 -22 -22 -27 -2 -29 1 -12 28 15 24 33 21 34 -6z m67 -1 c-7 -2
-19 -2 -25 0 -7 3 -2 5 12 5 14 0 19 -2 13 -5z m-123 -23 c0 -5 -9 -10 -21
-10 -11 0 -17 5 -14 10 3 6 13 10 21 10 8 0 14 -4 14 -10z"/>
<path d="M187 258 c-9 -18 -13 -36 -11 -40 3 -4 -2 -8 -10 -8 -8 0 -20 -9 -26
-20 -10 -18 -8 -20 21 -20 24 0 30 4 25 15 -6 17 9 21 19 4 4 -6 19 -7 35 -4
27 6 60 -14 60 -36 0 -5 12 -9 27 -9 l27 0 -33 29 c-31 28 -31 30 -12 36 28 9
26 23 -4 35 -14 5 -25 17 -25 26 0 12 -6 15 -24 10 -14 -3 -28 -2 -31 4 -11
17 -22 11 -38 -22z"/>
<path d="M686 254 c-9 -23 -8 -24 14 -24 13 0 20 7 20 20 0 24 -25 27 -34 4z"/>
<path d="M390 235 c0 -14 5 -25 10 -25 6 0 10 11 10 25 0 14 -4 25 -10 25 -5
0 -10 -11 -10 -25z"/>
<path d="M0 198 c0 -32 0 -32 16 -10 15 22 12 42 -7 42 -5 0 -9 -15 -9 -32z"/>
<path d="M700 193 c-52 -8 -110 -26 -110 -34 0 -5 12 -4 26 1 14 6 37 10 52
10 15 1 38 7 52 15 25 15 24 15 -20 8z"/>
<path d="M61 151 c-8 -5 -11 -16 -8 -24 3 -8 0 -20 -6 -26 -8 -8 -2 -11 24
-12 58 -2 82 2 126 22 23 10 48 19 56 19 8 0 20 7 27 15 17 20 -6 20 -47 0
-16 -8 -40 -13 -53 -10 -12 2 -41 0 -62 -4 -36 -9 -39 -8 -35 10 6 21 0 23
-22 10z"/>
<path d="M170 156 c0 -2 7 -6 15 -10 8 -3 15 -1 15 4 0 6 -7 10 -15 10 -8 0
-15 -2 -15 -4z"/>
<path d="M700 140 c-13 -8 -12 -10 3 -10 9 0 17 5 17 10 0 12 -1 12 -20 0z"/>
<path d="M0 120 c0 -23 25 -27 33 -6 7 16 -1 26 -20 26 -7 0 -13 -9 -13 -20z"/>
<path d="M330 110 c0 -5 5 -10 11 -10 5 0 7 5 4 10 -3 6 -8 10 -11 10 -2 0 -4
-4 -4 -10z"/>
<path d="M250 95 c0 -5 5 -17 10 -25 8 -13 12 -13 27 3 17 17 17 18 -1 11 -11
-4 -21 -2 -27 7 -5 8 -9 10 -9 4z"/>
<path d="M930 75 c7 -8 19 -15 27 -15 13 0 13 3 3 15 -7 8 -19 15 -27 15 -13
0 -13 -3 -3 -15z"/>
<path d="M1024 78 c-3 -4 2 -8 10 -8 9 0 16 -7 16 -16 0 -8 5 -12 10 -9 19 12
11 41 -11 41 -11 0 -23 -4 -25 -8z"/>
<path d="M1570 76 c0 -9 5 -16 10 -16 6 0 10 4 10 9 0 6 -4 13 -10 16 -5 3
-10 -1 -10 -9z"/>
<path d="M976 51 c-19 -7 -19 -8 3 -23 16 -11 19 -17 9 -21 -7 -3 4 -6 25 -6
44 -1 50 18 12 43 -13 9 -26 16 -27 15 -2 0 -12 -4 -22 -8z"/>
<path d="M17 26 c-24 -18 -21 -26 9 -26 14 0 23 4 19 10 -3 6 4 14 17 19 l23
10 -25 0 c-14 0 -33 -6 -43 -13z"/>
</g>
</svg>
